<svg width="115" height="115" viewBox="0 0 115 115" fill="none" xmlns="http://www.w3.org/2000/svg">
<path fill-rule="evenodd" clip-rule="evenodd" d="M57.09 114.18C88.6199 114.18 114.18 88.6199 114.18 57.09C114.18 25.5601 88.6199 0 57.09 0C25.5601 0 0 25.5601 0 57.09C0 88.6199 25.5601 114.18 57.09 114.18Z" fill="transparent"/>
<rect x="29.6802" y="38.21" width="53.64" height="47.04" rx="3.42" fill="#55a1bf"/>
<path d="M30.9999 37.23H83.1999C84.1846 37.2244 84.9889 38.0153 84.9999 39V49H28.1699V40C28.2181 38.4673 29.4665 37.2453 30.9999 37.23Z" fill="#89fafc"/>
<path fill-rule="evenodd" clip-rule="evenodd" d="M83.56 61.5101H57.4V39.0001C58.1054 39.1986 58.838 39.283 59.57 39.2501L68.01 39.3101C70.1811 39.4172 72.3568 39.2356 74.48 38.7701C76.625 38.2811 78.4839 36.9517 79.64 35.0801C80.5409 33.1321 80.7593 30.9374 80.26 28.8501C79.61 25.1701 77.63 21.3301 74.08 20.1501C71.3102 19.3944 68.3462 19.9872 66.08 21.7501C63.8984 23.4789 62.0571 25.5982 60.65 28.0001C59.0585 30.5752 57.629 33.247 56.37 36.0001C55.1076 33.2468 53.6749 30.575 52.08 28.0001C50.6674 25.5702 48.808 23.4292 46.6 21.6901C44.3497 19.9433 41.4112 19.3512 38.66 20.0901C35.11 21.2701 33.12 25.0901 32.47 28.7901C31.9794 30.8789 32.2011 33.0718 33.1 35.0201C34.2514 36.8919 36.1074 38.2218 38.25 38.7101C40.3734 39.1752 42.549 39.3568 44.72 39.2501L53.16 39.1901C53.9121 39.2579 54.6702 39.1936 55.4 39.0001V61.5101H29.29C28.7378 61.5101 28.29 61.9578 28.29 62.5101C28.29 63.0623 28.7378 63.5101 29.29 63.5101H55.4V87.2401C55.4 87.7923 55.8478 88.2401 56.4 88.2401C56.9523 88.2401 57.4 87.7923 57.4 87.2401V63.5101H83.56C84.1123 63.5101 84.56 63.0623 84.56 62.5101C84.56 61.9578 84.1123 61.5101 83.56 61.5101ZM65.13 28.8801C66.67 27.2501 68.89 25.2201 71.31 25.5601C72.829 25.8584 74.0999 26.8931 74.7 28.3201C75.1571 29.2493 75.3143 30.2976 75.15 31.3201C74.68 34.0001 72 34.5601 69.64 34.7601C66.7933 35.0543 63.9315 35.1778 61.07 35.1301C62.0198 32.8107 63.3971 30.6906 65.13 28.8801ZM37.61 31.3001C38.13 34.0101 40.79 34.5601 43.13 34.7601H43.1C45.9538 35.0488 48.8223 35.1656 51.69 35.1101C50.743 32.7893 49.3655 30.6687 47.63 28.8601C46.1 27.2301 43.88 25.2001 41.45 25.5401C39.9319 25.8401 38.6617 26.8742 38.06 28.3001C37.6158 29.2333 37.4591 30.2776 37.61 31.3001Z" fill="#003B57"/>
</svg>
